<?xml version="1.0" encoding="UTF-8"?>
<svg version="1.1" xmlns="http://www.w3.org/2000/svg" width="1358" height="528">
<path d="M0 0 C4.70770401 3.39709599 7.47343968 7.56172846 8.75390625 13.265625 C9.98806809 23.96169427 3.08692531 33.53652156 -2.18359375 42.328125 C-7.24042013 50.82542099 -7.24042013 50.82542099 -12.1875 59.38671875 C-12.78800171 60.44330688 -12.78800171 60.44330688 -13.40063477 61.52124023 C-14.39147602 63.24250461 -14.39147602 63.24250461 -14.24609375 65.265625 C-12.83931352 66.51376831 -11.36729671 67.6887089 -9.87109375 68.828125 C-1.59085718 75.30474568 6.13619948 82.07428095 12.75390625 90.265625 C13.53636719 91.23371094 14.31882812 92.20179687 15.125 93.19921875 C31.29940846 113.54937319 42.45050125 136.77915395 48.56640625 162.015625 C48.76129639 162.81766357 48.95618652 163.61970215 49.15698242 164.44604492 C52.28758988 178.17297906 53.07886073 191.59719611 53.01464844 205.61523438 C53.00400112 208.36611383 53.01456734 211.11632867 53.02734375 213.8671875 C53.02602034 215.69010555 53.0234542 217.51302319 53.01953125 219.3359375 C53.02357971 220.1210672 53.02762817 220.9061969 53.03179932 221.71511841 C52.95437473 231.67382431 51.70804836 241.24713281 50.75390625 251.265625 C-52.53609375 251.265625 -155.82609375 251.265625 -262.24609375 251.265625 C-254.1549107 285.24859383 -242.51390926 310.84029478 -212.32421875 329.87890625 C-202.52582961 335.77555588 -191.976902 340.01662119 -180.99609375 343.140625 C-180.32473389 343.33180908 -179.65337402 343.52299316 -178.96166992 343.7199707 C-167.49822315 346.73681137 -155.87352573 347.63325656 -144.05859375 347.578125 C-142.16620972 347.57075317 -142.16620972 347.57075317 -140.2355957 347.56323242 C-110.23857277 347.18992082 -83.19926339 338.35838483 -61.05859375 317.578125 C-51.08347614 307.26622689 -44.84112041 294.32068721 -39.24609375 281.265625 C-10.53609375 281.265625 18.17390625 281.265625 47.75390625 281.265625 C43.69758507 309.65987327 28.20753472 335.68097162 8.75390625 356.265625 C7.56125103 357.65705609 6.37350312 359.05271294 5.19140625 360.453125 C1.68009689 364.46033682 -2.12021175 367.90123129 -6.24609375 371.265625 C-7.61507812 372.39097656 -7.61507812 372.39097656 -9.01171875 373.5390625 C-54.61857118 409.86411833 -114.36297362 421.2600189 -171.54272461 415.32006836 C-209.35280668 410.77517909 -246.37489674 398.41251705 -276.24609375 374.265625 C-276.77154785 373.84168457 -277.29700195 373.41774414 -277.83837891 372.98095703 C-294.96100618 359.07866369 -309.07084915 343.3168438 -320.24609375 324.265625 C-320.67921875 323.53053711 -321.11234375 322.79544922 -321.55859375 322.03808594 C-339.70940636 290.69957354 -346.70992562 255.93507173 -346.55859375 220.078125 C-346.55677094 219.17831909 -346.55494812 218.27851318 -346.55307007 217.35144043 C-346.50688372 203.79040626 -346.01705464 190.58245754 -343.24609375 177.265625 C-343.0744873 176.40743164 -342.90288086 175.54923828 -342.72607422 174.66503906 C-334.52772235 134.55978604 -313.42041608 90.71517322 -278.24609375 67.265625 C-279.7188986 63.28712126 -281.60134784 59.7405782 -283.73046875 56.07421875 C-284.06854553 55.48826431 -284.40662231 54.90230988 -284.75494385 54.29859924 C-286.18747031 51.81589522 -287.6275028 49.33757519 -289.06738281 46.85913086 C-303.95192351 21.20144169 -303.95192351 21.20144169 -302.24609375 13.265625 C-300.29667993 7.07538112 -296.60321477 2.85775487 -291.24609375 -0.734375 C-285.37936843 -2.68995011 -278.65103671 -2.73989537 -272.93359375 -0.234375 C-265.13836715 4.50154881 -261.07397501 13.78489904 -256.80859375 21.515625 C-255.67116991 23.5537187 -254.53315424 25.59148223 -253.39453125 27.62890625 C-252.8540918 28.59908691 -252.31365234 29.56926758 -251.75683594 30.56884766 C-248.98949583 35.50873758 -246.12107527 40.38778939 -243.24609375 45.265625 C-242.66980225 45.02440918 -242.09351074 44.78319336 -241.49975586 44.53466797 C-183.70528799 20.5690235 -117.03445494 17.43508519 -58.24609375 40.265625 C-55.22170271 41.54824901 -52.2249215 42.88064683 -49.24609375 44.265625 C-49.00890625 43.61078125 -48.77171875 42.9559375 -48.52734375 42.28125 C-46.86404591 38.36641484 -44.82771245 34.72136817 -42.74609375 31.015625 C-42.3068457 30.23292236 -41.86759766 29.45021973 -41.41503906 28.64379883 C-40.49300743 27.00629033 -39.56881884 25.36999464 -38.64257812 23.73486328 C-37.72262464 22.10821825 -36.80714111 20.47903585 -35.89648438 18.84716797 C-34.60858786 16.5419854 -33.30465102 14.2466287 -31.99609375 11.953125 C-31.60873047 11.25477539 -31.22136719 10.55642578 -30.82226562 9.83691406 C-27.75730968 4.53417725 -24.34658589 1.07424541 -18.99609375 -2.046875 C-12.26547556 -3.72952955 -6.0755953 -3.48579609 0 0 Z M-237.80859375 131.890625 C-249.9425793 145.76109965 -261.24609375 167.41923839 -261.24609375 186.265625 C-185.34609375 186.265625 -109.44609375 186.265625 -31.24609375 186.265625 C-34.49330262 158.66434962 -43.83493872 136.34388138 -65.24609375 118.265625 C-69.67438601 114.86995635 -74.39717136 112.01370727 -79.24609375 109.265625 C-80.3340625 108.63914062 -81.42203125 108.01265625 -82.54296875 107.3671875 C-133.37058655 80.04436009 -198.3750188 90.61180477 -237.80859375 131.890625 Z " fill="#0050AF" transform="translate(443.24609375,10.734375)"/>
<path d="M0 0 C1.05273605 0.00273422 1.05273605 0.00273422 2.1267395 0.00552368 C13.09234249 0.05337574 23.64228475 0.64100205 34.3125 3.3125 C35.35519043 3.56193359 35.35519043 3.56193359 36.41894531 3.81640625 C61.73768779 10.02254376 86.5382993 24.06549182 100.45703125 46.80078125 C100.73933594 47.29964844 101.02164063 47.79851562 101.3125 48.3125 C104.16604418 45.55996624 106.64361872 42.70104844 109.0625 39.5625 C126.15332887 18.14408511 153.02963442 4.58367788 180.109375 0.78125 C214.34558534 -2.90787634 251.56289913 1.65526568 279.625 23.125 C281.21158458 24.49339553 282.77295843 25.8913847 284.3125 27.3125 C285.27542969 28.18390625 286.23835938 29.0553125 287.23046875 29.953125 C307.83093717 49.1889764 318.84435407 76.33348457 320.4254384 104.31095839 C320.59653819 109.43676303 320.56381324 114.56304989 320.53955078 119.69091797 C320.53898521 121.38754266 320.53930606 123.08416783 320.54043579 124.78079224 C320.54100463 129.34184518 320.52932718 133.90279081 320.51528788 138.46381903 C320.50270144 143.2470427 320.50160383 148.0302694 320.49923706 152.81350708 C320.49304538 161.85121917 320.47666616 170.88888229 320.45653808 179.92657292 C320.43410672 190.22415547 320.42316753 200.52174048 320.41314721 210.81934142 C320.39229764 231.98376092 320.35565063 253.1481134 320.3125 274.3125 C301.1725 274.3125 282.0325 274.3125 262.3125 274.3125 C262.29062622 267.08484741 262.29062622 267.08484741 262.26831055 259.71118164 C262.21786074 243.74964913 262.15139501 227.78821254 262.07678509 211.82677555 C262.03195896 202.1541408 261.99251445 192.48154179 261.96606445 182.80883789 C261.94297702 174.37093789 261.90946066 165.93315225 261.86379844 157.49534315 C261.84001005 153.03409545 261.82118764 148.57295998 261.81488609 144.11165047 C261.80876935 139.89842395 261.78853714 135.68548408 261.75822449 131.47236443 C261.7495484 129.93953327 261.74569954 128.40666448 261.74749184 126.87380981 C261.76424355 105.90532411 258.43007361 84.7196057 243.76025391 68.75097656 C229.90171088 54.98124039 210.80477059 50.10245004 191.8125 49.9375 C172.80927132 50.14027252 154.341928 54.86447172 140.3125 68.3125 C139.60738281 68.97765625 138.90226562 69.6428125 138.17578125 70.328125 C125.58025092 83.28352762 120.25103541 102.56051989 120.15428162 120.26646423 C120.14687465 121.26161359 120.14687465 121.26161359 120.13931805 122.27686697 C120.12406929 124.4800672 120.11561705 126.6832386 120.10717773 128.88647461 C120.09758926 130.47369638 120.08757862 132.06091566 120.07717896 133.64813232 C120.05022885 137.94301931 120.02916595 142.23791718 120.00917697 146.53284144 C119.98725613 151.02651734 119.95989737 155.52016009 119.93312073 160.0138092 C119.8832761 168.51693166 119.83830685 177.0200726 119.79509836 185.52323109 C119.74565551 195.20642334 119.69076359 204.88958231 119.63541877 214.57274234 C119.52172511 234.48596534 119.41557802 254.39921903 119.3125 274.3125 C100.1725 274.3125 81.0325 274.3125 61.3125 274.3125 C61.29268066 269.61 61.27286133 264.9075 61.25244141 260.0625 C61.18539626 244.48814245 61.1078558 228.91385003 61.02497292 213.33956909 C60.97499811 203.90120031 60.92855436 194.46283957 60.890625 185.02441406 C60.85753002 176.79127113 60.81760424 168.55819345 60.76970994 160.32512283 C60.74461765 155.97179743 60.72278695 151.61851434 60.70915604 147.26513672 C60.69617693 143.15456543 60.67395805 139.04414058 60.64511681 134.93365097 C60.63616314 133.43748448 60.63038 131.9412945 60.62828636 130.44510269 C60.59092885 107.77160539 57.84757237 85.26248086 41.625 68 C25.65412455 53.03629687 4.92353273 49.52231518 -16.23046875 50.17626953 C-34.61288553 51.19548541 -51.94948523 58.49147996 -64.69140625 71.9375 C-78.13878415 87.93751128 -81.1431847 107.81152241 -81.11987305 127.97827148 C-81.12891604 129.58638244 -81.13924936 131.19448657 -81.15075684 132.80258179 C-81.17805549 137.11769045 -81.18757392 141.4326674 -81.19361091 145.74785113 C-81.20306615 150.27621229 -81.22927462 154.80447774 -81.25361633 159.33277893 C-81.29709002 167.88521626 -81.32575396 176.43763482 -81.34893972 184.9901486 C-81.37609465 194.73643686 -81.41999932 204.48262791 -81.46522844 214.22884643 C-81.55780039 234.25669213 -81.62739583 254.28452873 -81.6875 274.3125 C-101.1575 274.3125 -120.6275 274.3125 -140.6875 274.3125 C-140.6875 185.2125 -140.6875 96.1125 -140.6875 4.3125 C-121.2175 4.3125 -101.7475 4.3125 -81.6875 4.3125 C-81.1925 16.1925 -81.1925 16.1925 -80.6875 28.3125 C-78.74875 26.78625 -76.81 25.26 -74.8125 23.6875 C-52.9449891 6.81314336 -27.48530961 -0.14868374 0 0 Z " fill="#0050AF" transform="translate(687.6875,152.6875)"/>
<path d="M0 0 C0.94746094 0.78117187 1.89492187 1.56234375 2.87109375 2.3671875 C28.47760895 24.52317938 42.79654285 57.46304636 45.75 90.8125 C45.85739121 92.87388735 45.94045615 94.93667617 46 97 C46.03996094 98.14082031 46.07992188 99.28164063 46.12109375 100.45703125 C46.8003532 137.9761265 35.04822998 171.84582256 9.42578125 199.50390625 C-18.53046353 228.27047696 -56.82981816 243.13922865 -96.734375 244.203125 C-124.64202223 244.56778 -150.81405848 240.38057571 -176 228 C-177.13953125 227.44441406 -178.2790625 226.88882812 -179.453125 226.31640625 C-208.80530549 211.25776389 -230.75532264 184.62866833 -241.75 153.75 C-253.52917656 116.22377198 -252.29565936 73.27263396 -234 38 C-217.14325515 6.71418598 -187.93660222 -16.61635776 -154 -27 C-101.81842847 -41.89286924 -42.56472431 -35.34550688 0 0 Z M-167 41 C-168.01513672 42.01900391 -168.01513672 42.01900391 -169.05078125 43.05859375 C-176.34945835 50.84277044 -180.91422692 59.9790459 -184.3125 70 C-184.55492432 70.71075684 -184.79734863 71.42151367 -185.04711914 72.15380859 C-192.81922762 96.42826398 -191.73506518 127.1215536 -180 150 C-179.50886719 150.9796875 -179.01773437 151.959375 -178.51171875 152.96875 C-168.61742324 171.29326865 -152.22519478 183.84755014 -132.5 190.25 C-106.23357653 197.68389344 -78.80843683 194.96139048 -54.8125 181.8125 C-35.76073909 170.00869161 -21.99055672 152.39824311 -16.5625 130.5 C-10.95224381 106.14695968 -12.50522289 78.79760711 -24.8515625 56.68359375 C-38.05053998 36.09634402 -56.28075682 22.61086299 -80.25 17.25 C-111.87335936 11.07192648 -144.18494946 17.56366215 -167 41 Z " fill="#0050AF" transform="translate(1305,183)"/>
<path d="M0 0 C1.25731934 0.01027222 1.25731934 0.01027222 2.54003906 0.02075195 C8.64211609 0.17967261 13.40994466 0.99491358 18.5625 4.4375 C19.48869141 4.9634375 19.48869141 4.9634375 20.43359375 5.5 C27.32811923 9.77015771 31.46627171 16.73156758 33.5625 24.4375 C33.85436176 27.6469854 33.85630773 30.84254612 33.85302734 34.0637207 C33.85974457 35.01574371 33.86646179 35.96776672 33.87338257 36.94863892 C33.89233546 40.08690655 33.89628546 43.22495999 33.8984375 46.36328125 C33.90486746 48.55275052 33.91159597 50.74221893 33.91860962 52.9316864 C33.93057573 57.5188496 33.93429114 62.10593753 33.93310547 66.69311523 C33.93290236 72.55734318 33.96019985 78.42108609 33.99464989 84.28519917 C34.0169396 88.80722754 34.02094236 93.32913959 34.01988602 97.85121727 C34.02223902 100.01247008 34.03104552 102.17372623 34.04655075 104.3349247 C34.06625156 107.36465581 34.06035621 110.39334612 34.04833984 113.4230957 C34.05957886 114.30703506 34.07081787 115.19097443 34.08239746 116.10169983 C33.99514796 124.80381591 30.59246505 133.0725369 24.5625 139.4375 C14.05667537 147.88107016 3.57623869 148.53977232 -9.4375 147.4375 C-17.22676817 145.9105715 -23.28968679 141.37728447 -28.4375 135.4375 C-33.45756228 127.56594649 -34.58640232 120.63738776 -34.59863281 111.49145508 C-34.60359772 110.59970581 -34.60856262 109.70795654 -34.61367798 108.78918457 C-34.62825699 105.84512554 -34.63509519 102.90112042 -34.640625 99.95703125 C-34.6463808 97.90305074 -34.65213848 95.84907023 -34.65789795 93.79508972 C-34.66839641 89.48863475 -34.67424636 85.18219838 -34.67773438 80.87573242 C-34.68321079 75.37599142 -34.7072256 69.87649902 -34.73570633 64.37683582 C-34.75439532 60.1327189 -34.75954168 55.88866104 -34.76107025 51.64450645 C-34.76408415 49.61805554 -34.77206966 47.59160534 -34.78525543 45.56519508 C-34.80244399 42.72011425 -34.80040439 39.87563026 -34.79394531 37.03051758 C-34.8031601 36.20470688 -34.81237488 35.37889618 -34.8218689 34.52806091 C-34.75364764 24.86247794 -32.17453606 16.5091067 -25.4375 9.4375 C-17.83563415 2.49666597 -10.21541366 -0.12805121 0 0 Z " fill="#0151AF" transform="translate(41.4375,154.5625)"/>
<path d="M0 0 C2.69754758 2.34260711 3.81904631 3.9938351 4.453125 7.51953125 C4.76175425 12.64698537 4.53487986 16.07594929 1.125 20.0625 C0.10797742 21.0672397 -0.93132982 22.05037857 -2 23 C-2.66 23.66 -3.32 24.32 -4 25 C-2.63875 25.8353125 -2.63875 25.8353125 -1.25 26.6875 C2.83777047 29.59610591 5.40501434 32.21504302 7 37 C7.52971627 43.25065197 6.8692661 47.9100077 3 53 C-5.01088037 60.1428843 -15.22104365 60.31716778 -25.4375 60.1875 C-26.42943359 60.18685547 -27.42136719 60.18621094 -28.44335938 60.18554688 C-35.7181677 60.14091615 -35.7181677 60.14091615 -38 59 C-38 37.88 -38 16.76 -38 -5 C-9.62849873 -7.83715013 -9.62849873 -7.83715013 0 0 Z M-28 2 C-28 8.6 -28 15.2 -28 22 C-19.64694185 22.30937252 -14.46418395 22.20505515 -7.5625 17.25 C-5.27978769 13.96289428 -5.38243149 11.91126725 -6 8 C-8.54137159 4.84045695 -10.14622659 3.28459114 -14 2 C-18.66967754 1.86409553 -23.32737985 1.95713193 -28 2 Z M-28 29 C-28 36.59 -28 44.18 -28 52 C-22.54599693 54.72700153 -15.69768607 52.79203876 -10.2109375 50.96875 C-6.95293495 49.54121531 -5.56340305 48.19786988 -4 45 C-3.26341295 39.84389063 -3.33353304 38.05850635 -6.125 33.625 C-10.94278353 29.22615416 -15.49973953 28.74489264 -21.875 28.875 C-23.89625 28.91625 -25.9175 28.9575 -28 29 Z " fill="#0050AF" transform="translate(988,457)"/>
<path d="M0 0 C3.62833663 3.81930172 4.31000458 6.88279006 4.5 12 C4.30945595 17.13833793 3.58699267 20.1298237 0 24 C-1.94265944 25.77682266 -3.91242301 27.38687233 -6 29 C-5.2575 29.598125 -4.515 30.19625 -3.75 30.8125 C3.03514826 37.65498754 4.51965198 49.96256174 7 59 C3.37 59 -0.26 59 -4 59 C-4.31453125 57.9378125 -4.6290625 56.875625 -4.953125 55.78125 C-8.0258227 44.98150205 -8.0258227 44.98150205 -13 35 C-18.96896279 32.32917961 -18.96896279 32.32917961 -30 32 C-30 40.91 -30 49.82 -30 59 C-33.3 59 -36.6 59 -40 59 C-40.0231271 50.80309439 -40.04091696 42.60620232 -40.05181217 34.40927219 C-40.0570402 30.60348423 -40.06413638 26.79771852 -40.07543945 22.99194336 C-40.0862712 19.32207456 -40.09227744 15.65222722 -40.09487724 11.98234367 C-40.09673097 10.57925008 -40.1003506 9.17615771 -40.10573006 7.7730732 C-40.11294419 5.8143032 -40.11340809 3.8555118 -40.11352539 1.89672852 C-40.115746 0.77976089 -40.11796661 -0.33720673 -40.12025452 -1.48802185 C-40 -4 -40 -4 -39 -5 C-26.60836372 -6.8902496 -10.17669558 -8.72288192 0 0 Z M-30 2 C-30 9.59 -30 17.18 -30 25 C-17.66082038 25.29707864 -17.66082038 25.29707864 -7.4375 19.8125 C-5.52859285 16.07768166 -5.17582925 13.11252878 -6 9 C-8.39187865 4.92494748 -10.54892575 3.36956131 -15 2 C-17.65509615 1.86243025 -20.1676475 1.80970927 -22.8125 1.875 C-25.184375 1.91625 -27.55625 1.9575 -30 2 Z " fill="#0051AF" transform="translate(1341,457)"/>
<path d="M0 0 C4.29 0 8.58 0 13 0 C13.4125 1.10174561 13.825 2.20349121 14.25 3.33862305 C15.8179883 7.52607516 17.38678711 11.71322329 18.95578003 15.90029907 C19.6497914 17.7527336 20.34357942 19.60525183 21.03713989 21.45785522 C25.86313553 34.35893763 25.86313553 34.35893763 30.77734375 47.2265625 C31.15310547 48.20020752 31.52886719 49.17385254 31.91601562 50.17700195 C32.57824461 51.88559706 33.24465745 53.59257877 33.91601562 55.29760742 C35.09703288 58.34421684 36 60.70132454 36 64 C32.37 64 28.74 64 25 64 C22.69 57.73 20.38 51.46 18 45 C10.08 44.67 2.16 44.34 -6 44 C-6.66 46.97 -7.32 49.94 -8 53 C-9.2128831 56.72275434 -10.60909415 60.33728125 -12 64 C-15.63 64 -19.26 64 -23 64 C-20.77503738 56.2645571 -18.14826868 48.74933352 -15.33203125 41.2109375 C-14.89235519 40.02650055 -14.45267914 38.8420636 -13.99967957 37.62173462 C-12.8429431 34.50731655 -11.68353619 31.39392085 -10.52276611 28.28100586 C-9.3338481 25.09053309 -8.14853165 21.89872293 -6.96289062 18.70703125 C-4.64520521 12.47012985 -2.32365112 6.23468112 0 0 Z M6 10 C4.49485354 14.12314058 2.99675628 18.24880702 1.5 22.375 C0.85611328 24.1384375 0.85611328 24.1384375 0.19921875 25.9375 C-0.20683594 27.05898438 -0.61289063 28.18046875 -1.03125 29.3359375 C-1.40830078 30.37282715 -1.78535156 31.4097168 -2.17382812 32.47802734 C-3.10377033 34.87446146 -3.10377033 34.87446146 -3 37 C3.27 37 9.54 37 16 37 C15.27683594 34.95619141 15.27683594 34.95619141 14.5390625 32.87109375 C13.90093364 31.05993389 13.26291884 29.24873384 12.625 27.4375 C12.30789063 26.54224609 11.99078125 25.64699219 11.6640625 24.72460938 C9.94991849 19.85001235 8.35445622 14.98686155 7 10 C6.67 10 6.34 10 6 10 Z " fill="#0051AF" transform="translate(1113,452)"/>
<path d="M0 0 C12.87 0 25.74 0 39 0 C39 2.64 39 5.28 39 8 C29.43 8 19.86 8 10 8 C10 14.27 10 20.54 10 27 C18.91 27 27.82 27 37 27 C37 29.64 37 32.28 37 35 C28.09 35 19.18 35 10 35 C10 42.26 10 49.52 10 57 C20.23 57 30.46 57 41 57 C41 59.31 41 61.62 41 64 C27.47 64 13.94 64 0 64 C0 42.88 0 21.76 0 0 Z " fill="#0050AF" transform="translate(1246,452)"/>
<path d="M0 0 C12.54 0 25.08 0 38 0 C38 2.64 38 5.28 38 8 C28.76 8 19.52 8 10 8 C10 14.6 10 21.2 10 28 C18.58 28 27.16 28 36 28 C36 30.64 36 33.28 36 36 C27.42 36 18.84 36 10 36 C10 45.24 10 54.48 10 64 C6.7 64 3.4 64 0 64 C0 42.88 0 21.76 0 0 Z " fill="#0050B0" transform="translate(1192,452)"/>
<path d="M0 0 C3.96 0 7.92 0 12 0 C12.44915771 0.81267334 12.89831543 1.62534668 13.36108398 2.46264648 C15.02395346 5.46942291 16.68833471 8.47535178 18.35375977 11.48071289 C19.07507426 12.78310885 19.79577955 14.08584241 20.51586914 15.38891602 C21.54935342 17.25886107 22.58500263 19.12759212 23.62109375 20.99609375 C24.2442749 22.12200928 24.86745605 23.2479248 25.50952148 24.40795898 C26.76511712 26.851953 26.76511712 26.851953 28 28 C28.41362793 27.25838623 28.82725586 26.51677246 29.25341797 25.75268555 C30.79182082 22.99578642 32.331328 20.23950783 33.87158203 17.48364258 C34.53738882 16.29183222 35.20275769 15.0997771 35.86767578 13.9074707 C36.82468742 12.19157316 37.78341652 10.47663386 38.7421875 8.76171875 C39.3182373 7.73006592 39.89428711 6.69841309 40.48779297 5.63549805 C41.58938152 3.7156323 42.77219623 1.84170566 44 0 C46.8203125 -0.29296875 46.8203125 -0.29296875 50.125 -0.1875 C51.76855469 -0.14689453 51.76855469 -0.14689453 53.4453125 -0.10546875 C54.70988281 -0.05326172 54.70988281 -0.05326172 56 0 C51.99060284 7.54267081 47.44266467 14.70138741 42.8125 21.875 C42.08113315 23.01286207 41.35001184 24.150882 40.61914062 25.2890625 C35.52008929 33.21986607 35.52008929 33.21986607 33 37 C32.63112811 39.90644244 32.63112811 39.90644244 32.5859375 43.19921875 C32.54726562 44.40771484 32.50859375 45.61621094 32.46875 46.86132812 C32.4378125 48.12396484 32.406875 49.38660156 32.375 50.6875 C32.33632812 51.96173828 32.29765625 53.23597656 32.2578125 54.54882812 C32.16342314 57.69907292 32.0778417 60.84930991 32 64 C28.7 64 25.4 64 22 64 C22.05873291 63.29842773 22.11746582 62.59685547 22.17797852 61.87402344 C23.62173723 40.21237992 18.01402472 28.08895477 5.90771484 10.83398438 C3.55878235 7.34455408 1.73930163 3.82366578 0 0 Z " fill="#0051AF" transform="translate(1002,452)"/>
<path d="M0 0 C4.3625175 2.27077045 6.85263976 4.94705774 8.99609375 9.31640625 C10.60472678 15.3959297 10.19779747 19.76678647 6.99609375 25.31640625 C2.97454819 30.07876283 -0.19123765 32.05597397 -6.37890625 32.62890625 C-12.0268777 32.14201216 -16.18174212 30.5991365 -19.87890625 26.25390625 C-23.65456959 21.03460693 -23.64973691 16.65810454 -23.00390625 10.31640625 C-20.81864283 5.86494374 -18.06445415 3.1275548 -14.00390625 0.31640625 C-9.40259088 -1.21736554 -4.65611133 -1.58834207 0 0 Z " fill="#0050AF" transform="translate(369.00390625,145.68359375)"/>
<path d="M0 0 C3.76103512 1.87647343 6.40571638 4.45144437 8.28125 8.21875 C10.05659571 13.93347227 9.8791863 19.4334573 7.25390625 24.78125 C2.56634586 29.97557367 -0.54800361 32.08370629 -7.43359375 32.59375 C-13.0940949 32.20337061 -16.50594988 30.1870429 -20.37109375 26.15625 C-23.54505233 22.19921502 -24.05859375 19.40181885 -24.05859375 14.34375 C-22.88666599 8.05795563 -20.71303411 4.17657787 -15.43359375 0.53125 C-10.29152203 -1.27799746 -5.25597263 -1.67552828 0 0 Z " fill="#0050AF" transform="translate(238.05859375,145.65625)"/>
<path d="M0 0 C3.3 0 6.6 0 10 0 C10 21.12 10 42.24 10 64 C6.7 64 3.4 64 0 64 C0 42.88 0 21.76 0 0 Z " fill="#0050AF" transform="translate(1163,452)"/>
</svg>
